<svg xmlns="http://www.w3.org/2000/svg" xmlns:xlink="http://www.w3.org/1999/xlink" viewBox="0 0 72.36 69.41"><defs><style>.cls-1{fill:url(#linear-gradient);}.cls-2{fill:url(#linear-gradient-2);}</style><linearGradient id="linear-gradient" x1="11.09" y1="3.74" x2="54.33" y2="50.8" gradientUnits="userSpaceOnUse"><stop offset="0" stop-color="#fff"/><stop offset="1" stop-color="#4b4cba"/></linearGradient><linearGradient id="linear-gradient-2" x1="-2.98" y1="-6.27" x2="54.63" y2="56.42" xlink:href="#linear-gradient"/></defs><g id="Layer_2" data-name="Layer 2"><g id="text_and_icons" data-name="text and icons"><path class="cls-1" d="M52.13,69.41a2.58,2.58,0,0,1-2.45-1.93L43.29,42.89A2.11,2.11,0,0,1,43.63,41a2,2,0,0,1,1.61-.77,2.44,2.44,0,0,1,.59.07l24.6,6.4a2.58,2.58,0,0,1,1.89,2,2,2,0,0,1-.83,2.07L61.05,58a.74.74,0,0,0-.13.12L53.8,68.55A2,2,0,0,1,52.13,69.41Z"/><path class="cls-2" d="M46.73,62.91a31.45,31.45,0,0,1-5.87,1.9A27.73,27.73,0,0,0,45,56.36L45,56.15,43.38,50c-2,9.55-5.65,15.47-9,15.47-3.74,0-7.8-7.17-9.61-18.47a90.14,90.14,0,0,0,9.61.51c2.76,0,5.56-.13,8.29-.39l-.8-3.09c-2.37.2-4.87.31-7.49.31a87.56,87.56,0,0,1-10.05-.56,86.58,86.58,0,0,1,0-19,90.37,90.37,0,0,1,20.09,0,85.22,85.22,0,0,1,.52,9.48c0,1.37,0,2.7-.1,4l.24,0,2.91.75c.08-1.56.12-3.16.12-4.79a89.7,89.7,0,0,0-.44-9c10.95,1.76,17.87,5.54,17.87,9,0,2.44-3.4,5-9.21,7l2.8.73,2.38.62a20.92,20.92,0,0,0,3.39-2c-.19.92-.43,1.82-.7,2.71l3.08.8A34.34,34.34,0,1,0,47.54,66ZM64.86,28c-3.88-2.88-10.35-4.88-17.63-6-1.15-8-3.41-14.38-6.37-18.2A31.28,31.28,0,0,1,64.86,28ZM34.34,3.17c3.74,0,7.79,7.17,9.6,18.47a90.7,90.7,0,0,0-19.21,0C26.54,10.34,30.6,3.17,34.34,3.17Zm-6.53.69c-3,3.82-5.22,10.23-6.37,18.2-7.27,1.09-13.75,3.09-17.63,6A31.28,31.28,0,0,1,27.81,3.86ZM21.05,25.31a90.73,90.73,0,0,0,0,18.05c-11-1.76-17.88-5.53-17.88-9S10.09,27.07,21.05,25.31ZM3.81,40.64c3.88,2.88,10.36,4.89,17.63,6,1.15,8,3.41,14.39,6.37,18.2A31.26,31.26,0,0,1,3.81,40.64Z"/></g></g></svg>