<svg xmlns="http://www.w3.org/2000/svg" xmlns:xlink="http://www.w3.org/1999/xlink" viewBox="0 0 113 113"><defs><style>.cls-1{fill:url(#linear-gradient);}.cls-2{clip-path:url(#clip-path);}.cls-3{fill:url(#linear-gradient-3);}</style><linearGradient id="linear-gradient" x1="0.56" y1="3.46" x2="73.23" y2="71.53" gradientTransform="translate(-0.38 -0.53) rotate(-0.09)" gradientUnits="userSpaceOnUse"><stop offset="0" stop-color="#fff"/><stop offset="1" stop-color="#4b4cba"/></linearGradient><clipPath id="clip-path" transform="translate(14.14 14.14)"><path class="cls-1" d="M58.86,64.78,78.05,83.92l6-6L64.8,58.81l13.62-4.58L43.93,43.94l10.4,34.48ZM41.19,0a41.28,41.28,0,0,0,.14,82.56l1.52,0-1.51-5h0a36.24,36.24,0,1,1,36.16-36.3v0l5,1.5c0-.49,0-1,0-1.53A41.32,41.32,0,0,0,41.19,0Zm0,17.23A24,24,0,0,0,37.58,65l-1.67-5.52A19,19,0,1,1,59.47,35.87L65,37.52A24,24,0,0,0,41.22,17.23Z"/></clipPath><linearGradient id="linear-gradient-3" x1="0.54" y1="3.49" x2="73.21" y2="71.56" gradientTransform="translate(-0.31 -0.6)" xlink:href="#linear-gradient"/></defs><g id="Layer_2" data-name="Layer 2"><g id="text_and_icons" data-name="text and icons"><path class="cls-1" d="M58.86,64.78,78.05,83.92l6-6L64.8,58.81l13.62-4.58L43.93,43.94l10.4,34.48ZM41.19,0a41.28,41.28,0,0,0,.14,82.56l1.52,0-1.51-5h0a36.24,36.24,0,1,1,36.16-36.3v0l5,1.5c0-.49,0-1,0-1.53A41.32,41.32,0,0,0,41.19,0Zm0,17.23A24,24,0,0,0,37.58,65l-1.67-5.52A19,19,0,1,1,59.47,35.87L65,37.52A24,24,0,0,0,41.22,17.23Z" transform="translate(14.14 14.14)"/><g class="cls-2"><rect class="cls-3" x="-14.05" y="-14.05" width="112.81" height="112.81" transform="translate(14.07 14.21) rotate(-0.09)"/></g></g></g></svg>