<svg xmlns="http://www.w3.org/2000/svg" xmlns:xlink="http://www.w3.org/1999/xlink" viewBox="0 0 84 83.24"><defs><style>.cls-1{fill:url(#linear-gradient);}.cls-2{fill:url(#linear-gradient-2);}.cls-3{fill:url(#linear-gradient-3);}.cls-4{fill:url(#linear-gradient-4);}.cls-5{fill:url(#linear-gradient-5);}</style><linearGradient id="linear-gradient" x1="-8.34" y1="-17.83" x2="67.71" y2="74.02" gradientUnits="userSpaceOnUse"><stop offset="0" stop-color="#fff"/><stop offset="1" stop-color="#4b4cba"/></linearGradient><linearGradient id="linear-gradient-2" x1="-13.16" y1="-18.29" x2="66.21" y2="77.57" xlink:href="#linear-gradient"/><linearGradient id="linear-gradient-3" x1="-41.44" y1="5.12" x2="37.93" y2="100.99" xlink:href="#linear-gradient"/><linearGradient id="linear-gradient-4" x1="21.78" y1="-47.22" x2="101.15" y2="48.64" xlink:href="#linear-gradient"/><linearGradient id="linear-gradient-5" x1="-7.28" y1="-23.15" x2="72.09" y2="72.71" xlink:href="#linear-gradient"/></defs><g id="Layer_2" data-name="Layer 2"><g id="text_and_icons" data-name="text and icons"><path class="cls-1" d="M41.69,25.1a17.5,17.5,0,1,0,17.5,17.5A17.52,17.52,0,0,0,41.69,25.1Zm0,31A13.52,13.52,0,1,1,55.21,42.6,13.54,13.54,0,0,1,41.69,56.12Z"/><path class="cls-2" d="M23,4.68a2.08,2.08,0,0,0-2.08,2.08V17.91L3.55.59A2.12,2.12,0,0,0,.61.59a2.08,2.08,0,0,0,0,2.94l18,18H6.13a2.08,2.08,0,1,0,0,4.15H23A2.08,2.08,0,0,0,25,23.57V6.76A2.08,2.08,0,0,0,23,4.68Z"/><path class="cls-3" d="M23.64,58.22H6.82a2.08,2.08,0,1,0,0,4.15H18L.65,79.7a2.08,2.08,0,0,0,1.47,3.54,2,2,0,0,0,1.47-.61l18-18V77.11a2.08,2.08,0,1,0,4.16,0V60.3A2.08,2.08,0,0,0,23.64,58.22Z"/><path class="cls-4" d="M83.39.59a2.12,2.12,0,0,0-2.94,0L63.13,17.91V6.76a2.08,2.08,0,0,0-4.16,0V23.57a2.08,2.08,0,0,0,2.08,2.08H77.87a2.08,2.08,0,1,0,0-4.15H65.42l18-18A2.08,2.08,0,0,0,83.39.59Z"/><path class="cls-5" d="M83.35,79.7,66,62.37H77.18a2.08,2.08,0,1,0,0-4.15H60.36a2.08,2.08,0,0,0-2.08,2.08V77.11a2.08,2.08,0,0,0,4.16,0V64.67l18,18a2,2,0,0,0,1.47.61,2.08,2.08,0,0,0,1.47-3.54Z"/></g></g></svg>