<svg xmlns="http://www.w3.org/2000/svg" xmlns:xlink="http://www.w3.org/1999/xlink" viewBox="0 0 63.03 69.24"><defs><style>.cls-1{fill:url(#linear-gradient);}</style><linearGradient id="linear-gradient" y1="34.62" x2="63.03" y2="34.62" gradientUnits="userSpaceOnUse"><stop offset="0" stop-color="#fff"/><stop offset="1" stop-color="#4b4cba"/></linearGradient></defs><g id="Layer_2" data-name="Layer 2"><g id="text_and_icons" data-name="text and icons"><path class="cls-1" d="M31.2,69.24c-6.32,0-11.75-1.06-16.14-3.17A23.82,23.82,0,0,1,4.86,57,34.43,34.43,0,0,1,.27,42.41C.21,41.59.15,40.46.09,39.1S0,36.24,0,34.67s0-3.06.09-4.43S.21,27.78.27,27A35.1,35.1,0,0,1,3.19,16,26.74,26.74,0,0,1,9.27,7.41a26.39,26.39,0,0,1,9.16-5.47A36.56,36.56,0,0,1,30.83,0,47.11,47.11,0,0,1,44.88,1.87,26,26,0,0,1,54.59,7.2a22.51,22.51,0,0,1,5.87,8.43A35.73,35.73,0,0,1,62.85,27q.18,2.28.18,4.65c0,1.57,0,3-.05,4.36s-.07,2.21-.13,2.79a17.93,17.93,0,0,1-1.7,7.08,9.35,9.35,0,0,1-3.79,4,11.73,11.73,0,0,1-5.78,1.36A10.75,10.75,0,0,1,47,50.35a10.17,10.17,0,0,1-3-2,21.12,21.12,0,0,1-1.65-1.86l-1-1.37-.9,1.46a19.08,19.08,0,0,1-1.89,2.5,9.1,9.1,0,0,1-3.2,2.16,14.08,14.08,0,0,1-5.53.91,12,12,0,0,1-9.88-4.46c-2.5-3-3.76-7.41-3.76-13s1.26-10.08,3.76-13.11a12,12,0,0,1,9.88-4.47,9.79,9.79,0,0,1,5.27,1.19A12.27,12.27,0,0,1,38.23,21l2.08,2.68V18.76a.9.9,0,0,1,.25-.68.89.89,0,0,1,.69-.26h2.47a.85.85,0,0,1,.68.26.87.87,0,0,1,.26.68V38.23c0,2.9.64,5.12,1.92,6.61a6.37,6.37,0,0,0,5,2.33,5.79,5.79,0,0,0,4.58-1.82,8.42,8.42,0,0,0,1.9-3.75,15.57,15.57,0,0,0,.44-3.33c.06-.94.12-2.41.18-4.39a63,63,0,0,0-.18-6.62A30.2,30.2,0,0,0,55,14.63a19,19,0,0,0-8.89-8C42.27,4.88,37.12,4,30.83,4A29.31,29.31,0,0,0,17.5,6.8a21.87,21.87,0,0,0-8.82,8.06,29.88,29.88,0,0,0-4,12.36c-.13,1.08-.21,2.55-.24,4.5s0,3.83,0,5.75.11,3.55.24,4.72c.82,7.28,3.5,13,8,17s10.72,6,18.6,6a42.12,42.12,0,0,0,10.72-1.09,20.47,20.47,0,0,0,6.25-2.63c1.36-.93,2.48-1.75,3.34-2.42.32-.2.67-.44,1-.72a1.09,1.09,0,0,1,.67-.17h3.66a.84.84,0,0,1,.63.24.71.71,0,0,1,.22.6.79.79,0,0,1,0,.23,1,1,0,0,1-.17.23l0,0a29,29,0,0,1-5.72,4.79,29.64,29.64,0,0,1-8.4,3.6A46.84,46.84,0,0,1,31.2,69.24Zm-.83-48.08c-3.53,0-6.11,1.33-7.67,4a18.62,18.62,0,0,0-2.18,9.55,21.29,21.29,0,0,0,.93,6.42,10.8,10.8,0,0,0,3.13,5,8.49,8.49,0,0,0,5.79,2c3.66,0,6.29-1.32,7.81-3.91a18.59,18.59,0,0,0,2.13-9.5,18.91,18.91,0,0,0-2.12-9.54C36.66,22.5,34,21.16,30.37,21.16Z"/></g></g></svg>