<svg xmlns="http://www.w3.org/2000/svg" xmlns:xlink="http://www.w3.org/1999/xlink" viewBox="0 0 84 85.01"><defs><style>.cls-1{fill:url(#linear-gradient);}.cls-2{fill:url(#linear-gradient-2);}.cls-3{fill:url(#linear-gradient-3);}.cls-4{fill:url(#linear-gradient-4);}.cls-5{fill:url(#linear-gradient-5);}.cls-6{fill:url(#linear-gradient-6);}.cls-7{fill:url(#linear-gradient-7);}.cls-8{fill:url(#linear-gradient-8);}.cls-9{fill:url(#linear-gradient-9);}.cls-10{fill:url(#linear-gradient-10);}.cls-11{fill:url(#linear-gradient-11);}</style><linearGradient id="linear-gradient" x1="-15.62" y1="22.62" x2="47.41" y2="69.35" gradientUnits="userSpaceOnUse"><stop offset="0" stop-color="#fff"/><stop offset="1" stop-color="#4b4cba"/></linearGradient><linearGradient id="linear-gradient-2" x1="-10.31" y1="15.46" x2="52.72" y2="62.19" xlink:href="#linear-gradient"/><linearGradient id="linear-gradient-3" x1="-15.06" y1="21.88" x2="47.97" y2="68.6" xlink:href="#linear-gradient"/><linearGradient id="linear-gradient-4" x1="-28.4" y1="34.71" x2="34.62" y2="81.44" xlink:href="#linear-gradient"/><linearGradient id="linear-gradient-5" x1="-20.94" y1="29.8" x2="42.09" y2="76.53" xlink:href="#linear-gradient"/><linearGradient id="linear-gradient-6" x1="-3.59" y1="6.4" x2="59.44" y2="53.13" xlink:href="#linear-gradient"/><linearGradient id="linear-gradient-7" x1="10.15" y1="-12.14" x2="73.18" y2="34.59" xlink:href="#linear-gradient"/><linearGradient id="linear-gradient-8" x1="5.4" y1="-5.72" x2="68.42" y2="41.01" xlink:href="#linear-gradient"/><linearGradient id="linear-gradient-9" x1="-4.12" y1="7.11" x2="58.91" y2="53.84" xlink:href="#linear-gradient"/><linearGradient id="linear-gradient-10" x1="-0.48" y1="2.21" x2="62.55" y2="48.94" xlink:href="#linear-gradient"/><linearGradient id="linear-gradient-11" x1="5.71" y1="-6.15" x2="68.74" y2="40.58" xlink:href="#linear-gradient"/></defs><g id="Layer_2" data-name="Layer 2"><g id="text_and_icons" data-name="text and icons"><path class="cls-1" d="M40.59,85H4a4,4,0,0,1-4-4V24.88A3.93,3.93,0,0,1,.47,23L4.4,15.64a4,4,0,0,1,3.51-2.11H36.66a4,4,0,0,1,3.52,2.11L44.11,23a4.08,4.08,0,0,1,.47,1.87V81A4,4,0,0,1,40.59,85ZM4.22,80.8H40.36V24.94l-3.84-7.19H8.05L4.22,24.94Z"/><path class="cls-2" d="M37.26,46.7H7.31V32.54h30ZM11.53,42.49H33.05V36.76H11.53Z"/><path class="cls-3" d="M37.26,56.65H7.31V42.49h30ZM11.53,52.43H33.05V46.7H11.53Z"/><circle class="cls-4" cx="18.46" cy="69.45" r="1.75"/><circle class="cls-5" cx="22.29" cy="61.85" r="1.75"/><rect class="cls-6" x="2.11" y="23.48" width="40.36" height="4.22"/><path class="cls-7" d="M76.69,33.17H46.74V19H76.69ZM51,29H72.47V23.23H51Z"/><path class="cls-8" d="M76.69,43.11H46.74V29H76.69ZM51,38.9H72.47V33.17H51Z"/><circle class="cls-9" cx="61.71" cy="55.92" r="1.75"/><circle class="cls-10" cx="61.71" cy="48.32" r="1.75"/><path class="cls-11" d="M80,71.48H47V67.27H79.78V14.16H42.09a2.67,2.67,0,0,1-2.67-2.66v-.15a4.05,4.05,0,0,1,.47-1.87l3.93-7.37A4,4,0,0,1,47.34,0H76.09A4,4,0,0,1,79.6,2.11l3.93,7.36A4,4,0,0,1,84,11.35V67.49A4,4,0,0,1,80,71.48ZM44.42,9.94H79L76,4.22H47.48Z"/></g></g></svg>